<svg xmlns="http://www.w3.org/2000/svg" xmlns:xlink="http://www.w3.org/1999/xlink" width="1080" zoomAndPan="magnify" viewBox="0 0 810 809.999993" height="1080" preserveAspectRatio="xMidYMid meet" version="1.0"><path fill="#66c732" d="M 754.800781 562.625 L 620.703125 504.550781 L 427.671875 581.730469 C 420.722656 584.496094 412.597656 585.882812 404.46875 585.882812 C 396.355469 585.882812 388.242188 584.511719 381.304688 581.742188 L 188.222656 504.550781 L 54.136719 562.625 C 48.027344 565.265625 48.09375 569.417969 54.265625 571.886719 L 393.289062 707.425781 C 399.460938 709.894531 409.476562 709.894531 415.664062 707.425781 L 754.6875 571.886719 C 760.84375 569.417969 760.910156 565.265625 754.800781 562.625 Z M 754.800781 562.625 " fill-opacity="1" fill-rule="nonzero"/><path fill="#66c732" d="M 754.800781 406.09375 L 620.6875 348.007812 L 427.671875 425.171875 C 420.734375 427.953125 412.597656 429.335938 404.480469 429.335938 C 396.355469 429.335938 388.230469 427.953125 381.28125 425.1875 L 188.238281 348.007812 L 54.136719 406.09375 C 48.027344 408.734375 48.09375 412.886719 54.265625 415.355469 L 393.289062 550.894531 C 399.460938 553.363281 409.476562 553.363281 415.664062 550.894531 L 754.6875 415.355469 C 760.84375 412.886719 760.910156 408.746094 754.800781 406.09375 Z M 754.800781 406.09375 " fill-opacity="1" fill-rule="nonzero"/><path fill="#66c732" d="M 54.265625 258.824219 L 231.054688 329.511719 L 393.289062 394.375 C 399.460938 396.847656 409.476562 396.847656 415.664062 394.375 L 577.945312 329.496094 L 754.6875 258.835938 C 760.859375 256.367188 760.921875 252.226562 754.816406 249.578125 L 415.519531 102.617188 C 409.414062 99.976562 399.511719 99.976562 393.417969 102.617188 L 54.136719 249.5625 C 48.027344 252.214844 48.09375 256.355469 54.265625 258.824219 Z M 54.265625 258.824219 " fill-opacity="1" fill-rule="nonzero"/></svg>