<svg xmlns="http://www.w3.org/2000/svg" xmlns:xlink="http://www.w3.org/1999/xlink" width="1080" zoomAndPan="magnify" viewBox="0 0 810 809.999993" height="1080" preserveAspectRatio="xMidYMid meet" version="1.0"><defs><clipPath id="64cbbec91a"><path d="M 81 171.621094 L 361.875 171.621094 L 361.875 638.089844 L 81 638.089844 Z M 81 171.621094 " clip-rule="nonzero"/></clipPath><clipPath id="d31afb3e49"><path d="M 456.375 171.621094 L 737.25 171.621094 L 737.25 638.089844 L 456.375 638.089844 Z M 456.375 171.621094 " clip-rule="nonzero"/></clipPath></defs><g clip-path="url(#64cbbec91a)"><path fill="#66c732" d="M 222.40625 360.1875 C 205.945312 360.1875 190.214844 363.207031 175.546875 368.476562 C 176.832031 353.609375 179.535156 338.628906 183.757812 323.796875 C 192.335938 293.277344 207.890625 263.9375 228.800781 237.722656 C 249.765625 211.546875 276.527344 188.722656 307.679688 171.617188 C 273.035156 179.296875 239.003906 194.144531 208.351562 215.578125 C 177.785156 237.03125 150.207031 264.835938 129.230469 298.09375 C 108.152344 331.242188 93.042969 369.429688 85.859375 410.089844 C 80.230469 442.40625 79.378906 476.070312 83.890625 509.726562 C 84.558594 518.539062 86.070312 527.09375 88.316406 535.375 C 88.347656 535.507812 88.367188 535.644531 88.394531 535.777344 L 88.417969 535.769531 C 104.5625 594.640625 158.433594 638.089844 222.40625 638.089844 C 299.078125 638.089844 361.460938 575.757812 361.460938 499.136719 C 361.460938 422.523438 299.078125 360.1875 222.40625 360.1875 " fill-opacity="1" fill-rule="nonzero"/></g><g clip-path="url(#d31afb3e49)"><path fill="#66c732" d="M 598.195312 360.1875 C 581.738281 360.1875 566.003906 363.207031 551.335938 368.476562 C 552.628906 353.609375 555.332031 338.628906 559.554688 323.796875 C 568.128906 293.277344 583.683594 263.9375 604.589844 237.722656 C 625.554688 211.546875 652.316406 188.722656 683.46875 171.617188 C 648.824219 179.296875 614.792969 194.144531 584.144531 215.578125 C 553.582031 237.03125 526 264.835938 505.019531 298.09375 C 483.941406 331.242188 468.832031 369.429688 461.652344 410.089844 C 456.019531 442.414062 455.175781 476.082031 459.6875 509.742188 C 460.351562 518.539062 461.867188 527.085938 464.101562 535.347656 C 464.132812 535.492188 464.152344 535.636719 464.183594 535.777344 L 464.214844 535.769531 C 480.359375 594.640625 534.226562 638.089844 598.195312 638.089844 C 674.875 638.089844 737.25 575.757812 737.25 499.136719 C 737.25 422.523438 674.875 360.1875 598.195312 360.1875 " fill-opacity="1" fill-rule="nonzero"/></g></svg>