<svg xmlns="http://www.w3.org/2000/svg" xmlns:xlink="http://www.w3.org/1999/xlink" width="1080" zoomAndPan="magnify" viewBox="0 0 810 809.999993" height="1080" preserveAspectRatio="xMidYMid meet" version="1.0"><defs><clipPath id="fdbb4324a0"><path d="M 49 181 L 764 181 L 764 629.199219 L 49 629.199219 Z M 49 181 " clip-rule="nonzero"/></clipPath></defs><g clip-path="url(#fdbb4324a0)"><path fill="#66c732" d="M 740.640625 388.378906 L 696.371094 413.945312 C 695.097656 414.667969 693.6875 415.011719 692.253906 414.992188 C 691.589844 414.976562 690.941406 414.917969 690.3125 414.746094 C 688.238281 414.195312 686.519531 412.859375 685.453125 411.011719 L 684.425781 409.222656 L 594.839844 254.113281 L 590.078125 245.859375 L 585.691406 238.277344 C 584.628906 236.429688 584.339844 234.277344 584.894531 232.21875 C 585.445312 230.144531 586.761719 228.429688 588.628906 227.363281 L 632.898438 201.816406 C 634.136719 201.089844 635.488281 200.730469 636.878906 200.730469 C 637.5625 200.730469 638.269531 200.824219 638.957031 201.015625 C 641.015625 201.570312 642.746094 202.882812 643.816406 204.730469 L 743.574219 377.464844 C 745.785156 381.292969 744.46875 386.191406 740.640625 388.378906 Z M 646.65625 416.898438 C 646.480469 416.976562 646.332031 417.050781 646.179688 417.148438 L 612.238281 436.007812 L 612.21875 436.027344 L 493.726562 362.011719 L 483.207031 354.699219 L 474.269531 348.46875 L 452.773438 333.535156 C 452.183594 333.113281 451.554688 332.773438 450.910156 332.503906 L 408.488281 315.398438 C 400.503906 312.179688 391.527344 314.175781 385.621094 320.484375 C 375.140625 331.664062 347.109375 357.863281 313.207031 359.613281 C 312.007812 359.691406 311.320312 359.042969 310.957031 358.488281 C 310.59375 357.957031 310.269531 357.082031 310.785156 356.011719 L 335.921875 304.101562 C 341.503906 292.574219 351.777344 283.90625 364.089844 280.34375 L 415.101562 265.597656 C 415.179688 265.578125 415.253906 265.558594 415.328125 265.539062 C 418.761719 264.570312 422.285156 264.054688 425.847656 264 L 429.507812 263.9375 L 445.589844 263.730469 L 463.027344 263.480469 C 467.066406 263.425781 471.125 263.980469 475.015625 265.121094 L 532.277344 281.886719 C 543.253906 285.105469 555.050781 284.324219 565.511719 279.714844 C 565.6875 279.636719 565.835938 279.5625 565.988281 279.484375 L 582.605469 271.027344 L 662.433594 409.28125 Z M 620.816406 486.417969 C 621.519531 485.292969 622.148438 484.128906 622.679688 482.949219 C 622.148438 484.128906 621.539062 485.292969 620.816406 486.417969 Z M 612.769531 481.332031 C 610.066406 485.617188 605.835938 488.589844 600.898438 489.710938 C 595.945312 490.835938 590.855469 489.960938 586.570312 487.234375 L 496.929688 430.65625 C 492.792969 428.042969 487.324219 428.996094 484.3125 432.863281 L 483.152344 434.390625 C 481.492188 436.503906 480.828125 439.226562 481.285156 441.875 C 481.757812 444.523438 483.304688 446.847656 485.589844 448.277344 L 567.324219 499.882812 C 571.609375 502.589844 574.585938 506.800781 575.707031 511.753906 C 576.832031 516.6875 575.957031 521.773438 573.230469 526.058594 C 567.644531 534.917969 555.890625 537.566406 547.046875 531.984375 L 456.757812 474.984375 C 452.472656 472.28125 446.851562 473.402344 443.914062 477.519531 L 442.808594 479.0625 C 441.28125 481.195312 440.691406 483.863281 441.210938 486.4375 C 441.703125 489.003906 443.246094 491.253906 445.476562 492.644531 L 518.121094 538.519531 C 522.40625 541.226562 525.398438 545.4375 526.503906 550.386719 C 527.628906 555.324219 526.75 560.410156 524.042969 564.695312 C 521.339844 569 517.109375 571.972656 512.171875 573.078125 C 507.21875 574.203125 502.132812 573.324219 497.84375 570.621094 L 423.21875 523.507812 C 421.046875 522.136719 418.398438 521.699219 415.902344 522.304688 C 413.40625 522.898438 411.25 524.5 409.9375 526.707031 L 408.964844 528.347656 C 406.332031 532.785156 407.707031 538.5 412.070312 541.261719 L 465.886719 575.230469 C 470.328125 578.03125 473.339844 582.394531 474.367188 587.535156 C 475.414062 592.679688 474.308594 597.882812 471.296875 602.207031 C 465.582031 610.359375 453.746094 612.476562 444.925781 606.914062 L 392.097656 573.554688 C 392.957031 562.695312 389.183594 551.53125 380.78125 543.339844 C 375.273438 537.949219 368.507812 534.59375 361.457031 533.242188 L 353.53125 541.339844 L 361.4375 533.242188 C 361.457031 533.242188 361.457031 533.242188 361.457031 533.242188 L 361.550781 533.128906 C 376.226562 518.117188 375.941406 493.996094 360.945312 479.347656 C 354.75 473.289062 346.992188 469.824219 339.007812 468.851562 C 341.429688 463.707031 342.628906 458.144531 342.628906 452.582031 C 342.628906 442.714844 338.839844 432.84375 331.234375 425.414062 C 319.34375 413.8125 301.734375 411.601562 287.632812 418.632812 C 286.433594 410.441406 282.65625 402.878906 276.617188 396.972656 C 269.339844 389.867188 259.714844 386.035156 249.578125 386.152344 C 239.421875 386.265625 229.910156 390.324219 222.824219 397.601562 L 184.367188 436.921875 C 184.328125 436.980469 184.292969 437.035156 184.230469 437.074219 L 153.09375 407.316406 L 235.25 265.3125 L 275.019531 277.597656 C 275.609375 277.773438 276.199219 277.902344 276.808594 277.964844 C 289.40625 279.335938 302.191406 277.296875 313.738281 272.09375 L 361.589844 250.585938 C 372.359375 245.746094 384.746094 246.203125 395.09375 251.554688 L 358.789062 262.054688 C 341.296875 267.101562 326.699219 279.410156 318.773438 295.8125 L 293.636719 347.726562 C 290.28125 354.640625 290.816406 362.605469 295.085938 369.027344 C 299.332031 375.445312 306.460938 379.046875 314.199219 378.644531 C 355.015625 376.53125 387.46875 346.375 399.53125 333.496094 C 400.007812 332.980469 400.734375 332.828125 401.359375 333.074219 L 442.769531 349.761719 L 466.742188 366.453125 C 467.199219 366.890625 467.675781 367.269531 468.210938 367.613281 L 470.457031 369.042969 L 483.015625 377.789062 C 483.152344 377.863281 483.285156 377.957031 483.417969 378.035156 L 606.847656 455.132812 L 606.882812 455.152344 C 611.152344 457.878906 614.125 462.089844 615.230469 467.003906 C 616.355469 471.953125 615.476562 477.042969 612.769531 481.332031 Z M 373.023438 572.792969 C 372.664062 575.972656 371.460938 579.097656 369.460938 581.804688 C 368.949219 582.507812 368.414062 583.175781 367.78125 583.824219 L 351.644531 600.324219 C 348.101562 603.960938 343.355469 605.976562 338.285156 606.035156 C 333.175781 606.152344 328.414062 604.1875 324.792969 600.644531 C 321.171875 597.097656 319.132812 592.359375 319.074219 587.273438 C 319.019531 582.203125 320.945312 577.421875 324.488281 573.78125 L 336.800781 561.191406 L 340.609375 557.285156 C 341.679688 556.199219 342.839844 555.285156 344.078125 554.503906 C 347.164062 552.558594 350.671875 551.570312 354.199219 551.570312 C 355.417969 551.570312 356.636719 551.683594 357.835938 551.933594 C 361.34375 552.597656 364.714844 554.277344 367.480469 556.980469 C 368.203125 557.6875 368.832031 558.445312 369.421875 559.246094 C 372.375 563.207031 373.578125 568.066406 373.023438 572.792969 Z M 299.238281 569.628906 C 295.695312 573.25 290.949219 575.289062 285.878906 575.34375 C 280.792969 575.382812 276.007812 573.476562 272.386719 569.933594 C 268.765625 566.390625 266.726562 561.648438 266.671875 556.582031 C 266.613281 551.511719 268.539062 546.710938 272.082031 543.089844 L 285.84375 529.011719 L 292.644531 522.039062 L 299.445312 515.070312 L 320.769531 493.273438 C 324.488281 489.484375 329.421875 487.578125 334.339844 487.578125 C 339.140625 487.578125 343.925781 489.371094 347.625 492.96875 C 351.242188 496.511719 353.285156 501.257812 353.335938 506.324219 C 353.398438 511.390625 351.472656 516.191406 347.925781 519.8125 L 332.300781 535.8125 L 325.496094 542.765625 L 318.675781 549.742188 Z M 256.132812 529.433594 C 252.589844 533.054688 247.84375 535.074219 242.753906 535.148438 C 237.648438 535.148438 232.902344 533.28125 229.265625 529.738281 C 225.644531 526.195312 223.605469 521.449219 223.546875 516.382812 C 223.488281 511.296875 225.414062 506.511719 228.957031 502.894531 L 234.867188 496.835938 L 241.6875 489.863281 L 248.492188 482.910156 L 291.042969 439.359375 C 294.761719 435.550781 299.695312 433.644531 304.628906 433.644531 C 309.433594 433.644531 314.214844 435.433594 317.914062 439.035156 C 325.402344 446.351562 325.539062 458.410156 318.21875 465.898438 L 281.324219 503.636719 L 274.523438 510.589844 L 267.71875 517.566406 Z M 212.132812 482.472656 C 212.019531 482.472656 211.921875 482.492188 211.808594 482.492188 C 206.703125 482.527344 201.9375 480.644531 198.316406 477.082031 C 196.523438 475.347656 195.171875 473.328125 194.21875 471.175781 C 192.503906 467.269531 192.160156 462.910156 193.207031 458.832031 C 193.992188 455.6875 195.589844 452.714844 197.992188 450.238281 L 198.011719 450.238281 L 236.449219 410.917969 C 239.992188 407.277344 244.738281 405.261719 249.804688 405.203125 L 250.035156 405.203125 C 255.027344 405.203125 259.714844 407.109375 263.300781 410.59375 C 266.917969 414.136719 268.957031 418.878906 269.011719 423.96875 C 269.074219 429.035156 267.148438 433.816406 263.601562 437.457031 L 230.371094 471.460938 L 225.164062 476.777344 C 224.613281 477.347656 224.023438 477.859375 223.414062 478.339844 C 220.210938 480.910156 216.289062 482.359375 212.132812 482.472656 Z M 127.484375 411.011719 C 126.417969 412.859375 124.699219 414.195312 122.625 414.746094 C 120.566406 415.300781 118.414062 415.011719 116.5625 413.945312 L 72.296875 388.378906 C 68.464844 386.191406 67.171875 381.292969 69.363281 377.464844 L 169.121094 204.730469 C 170.191406 202.882812 171.921875 201.570312 173.980469 201.015625 C 176.039062 200.464844 178.191406 200.746094 180.039062 201.816406 L 224.328125 227.363281 C 226.175781 228.429688 227.492188 230.144531 228.042969 232.21875 C 228.597656 234.277344 228.308594 236.429688 227.242188 238.277344 Z M 760.078125 367.9375 L 660.316406 195.207031 C 656.699219 188.957031 650.863281 184.480469 643.890625 182.613281 C 636.917969 180.742188 629.621094 181.699219 623.367188 185.320312 L 579.101562 210.863281 C 572.828125 214.484375 568.351562 220.3125 566.484375 227.289062 C 564.617188 234.257812 565.570312 241.554688 569.191406 247.804688 L 573.058594 254.507812 L 557.605469 262.378906 C 551.296875 265.101562 544.226562 265.539062 537.632812 263.617188 L 480.367188 246.832031 C 474.652344 245.15625 468.726562 244.355469 462.761719 244.433594 L 425.582031 244.945312 C 423.65625 244.984375 421.75 245.136719 419.84375 245.347656 L 410.777344 238.871094 C 394.199219 227.019531 372.359375 224.847656 353.777344 233.210938 L 305.929688 254.71875 C 297.714844 258.417969 288.683594 259.921875 279.722656 259.121094 L 243.648438 247.957031 L 243.746094 247.804688 C 247.367188 241.554688 248.320312 234.257812 246.449219 227.289062 C 244.585938 220.3125 240.105469 214.484375 233.855469 210.863281 L 189.570312 185.320312 C 183.316406 181.699219 176.019531 180.742188 169.046875 182.613281 C 162.070312 184.480469 156.238281 188.957031 152.617188 195.207031 L 52.859375 367.9375 C 45.40625 380.855469 49.847656 397.429688 62.769531 404.878906 L 107.039062 430.445312 C 111.210938 432.84375 115.839844 434.082031 120.527344 434.082031 C 122.871094 434.082031 125.234375 433.757812 127.5625 433.148438 C 133.484375 431.550781 138.574219 428.082031 142.195312 423.246094 L 174.707031 454.332031 C 171.578125 467.003906 174.988281 480.949219 184.996094 490.722656 C 191.171875 496.761719 199.039062 500.417969 207.519531 501.316406 C 205.5 506.097656 204.433594 511.257812 204.488281 516.59375 C 204.605469 526.746094 208.683594 536.253906 215.945312 543.359375 C 223.109375 550.351562 232.542969 554.199219 242.527344 554.199219 C 242.679688 554.199219 242.832031 554.199219 242.984375 554.179688 C 244.585938 554.179688 246.167969 554.027344 247.75 553.796875 C 247.023438 564.527344 250.796875 575.476562 259.066406 583.554688 C 266.234375 590.550781 275.644531 594.394531 285.652344 594.394531 L 286.109375 594.394531 C 291.042969 594.339844 295.84375 593.328125 300.285156 591.480469 C 301.277344 600.128906 305.164062 608.09375 311.472656 614.265625 C 318.636719 621.257812 328.050781 625.085938 338.058594 625.085938 L 338.515625 625.085938 C 348.671875 624.972656 358.179688 620.914062 365.269531 613.636719 L 381.410156 597.140625 C 382.988281 595.519531 384.363281 593.785156 385.582031 591.976562 L 434.746094 623.007812 C 441.324219 627.164062 448.640625 629.164062 455.824219 629.164062 C 467.886719 629.164062 479.605469 623.542969 486.90625 613.121094 C 491.746094 606.1875 494.109375 598.109375 493.785156 589.863281 C 500.910156 592.738281 508.722656 593.40625 516.367188 591.671875 C 526.273438 589.425781 534.734375 583.460938 540.148438 574.871094 C 544.476562 568.050781 546.457031 560.199219 545.980469 552.292969 C 552.269531 554.234375 558.976562 554.523438 565.570312 553.039062 C 575.480469 550.789062 583.921875 544.824219 589.351562 536.234375 C 594.476562 528.117188 596.328125 518.574219 594.628906 509.183594 C 598.097656 509.371094 601.605469 509.085938 605.089844 508.285156 C 615 506.054688 623.445312 500.09375 628.875 491.5 C 634.304688 482.910156 636.058594 472.71875 633.828125 462.8125 C 632.703125 457.839844 630.628906 453.230469 627.769531 449.191406 L 655.191406 433.933594 L 672.644531 425.492188 C 676.058594 429.148438 680.421875 431.816406 685.375 433.148438 C 687.703125 433.757812 690.066406 434.082031 692.429688 434.082031 C 697.09375 434.082031 701.726562 432.84375 705.898438 430.445312 L 750.167969 404.878906 C 753.296875 403.066406 756 400.726562 758.136719 397.945312 C 760.269531 395.164062 761.851562 391.941406 762.785156 388.457031 C 764.652344 381.484375 763.679688 374.207031 760.078125 367.9375 " fill-opacity="1" fill-rule="nonzero"/></g></svg>