<svg xmlns="http://www.w3.org/2000/svg" xmlns:xlink="http://www.w3.org/1999/xlink" width="1080" zoomAndPan="magnify" viewBox="0 0 810 809.999993" height="1080" preserveAspectRatio="xMidYMid meet" version="1.0"><defs><clipPath id="0d825cb07b"><path d="M 128.914062 128.914062 L 680.914062 128.914062 L 680.914062 680.914062 L 128.914062 680.914062 Z M 128.914062 128.914062 " clip-rule="nonzero"/></clipPath></defs><g clip-path="url(#0d825cb07b)"><path fill="#66c732" d="M 623.714844 415.925781 L 557.621094 415.925781 C 552.21875 491.589844 491.589844 552.21875 415.925781 557.621094 L 415.925781 623.710938 C 470.304688 621.039062 521.046875 598.589844 559.820312 559.820312 C 598.589844 521.046875 621.039062 470.304688 623.714844 415.925781 Z M 393.902344 623.710938 L 393.902344 557.621094 C 318.242188 552.21875 257.613281 491.589844 252.210938 415.925781 L 186.117188 415.925781 C 188.792969 470.304688 211.242188 521.046875 250.011719 559.820312 C 288.78125 598.589844 339.523438 621.039062 393.902344 623.710938 Z M 186.117188 393.902344 L 252.210938 393.902344 C 257.613281 318.242188 318.242188 257.613281 393.902344 252.210938 L 393.902344 186.117188 C 339.523438 188.792969 288.78125 211.238281 250.011719 250.011719 C 211.242188 288.78125 188.792969 339.523438 186.117188 393.902344 Z M 473.605469 404.914062 C 473.605469 398.835938 478.535156 393.902344 484.617188 393.902344 L 535.535156 393.902344 C 530.226562 330.390625 479.441406 279.605469 415.925781 274.296875 L 415.925781 325.214844 C 415.925781 331.296875 410.996094 336.222656 404.914062 336.222656 C 398.835938 336.222656 393.902344 331.296875 393.902344 325.214844 L 393.902344 274.296875 C 330.390625 279.605469 279.605469 330.390625 274.296875 393.902344 L 325.214844 393.902344 C 331.296875 393.902344 336.222656 398.835938 336.222656 404.914062 C 336.222656 410.996094 331.296875 415.925781 325.214844 415.925781 L 274.296875 415.925781 C 279.605469 479.441406 330.390625 530.226562 393.902344 535.535156 L 393.902344 484.617188 C 393.902344 478.535156 398.835938 473.605469 404.914062 473.605469 C 410.996094 473.605469 415.925781 478.535156 415.925781 484.617188 L 415.925781 535.535156 C 479.441406 530.226562 530.226562 479.441406 535.535156 415.925781 L 484.617188 415.925781 C 478.535156 415.925781 473.605469 410.996094 473.605469 404.914062 Z M 415.925781 186.117188 L 415.925781 252.210938 C 491.589844 257.613281 552.21875 318.242188 557.621094 393.902344 L 623.714844 393.902344 C 621.039062 339.523438 598.589844 288.78125 559.820312 250.011719 C 521.046875 211.238281 470.304688 188.792969 415.925781 186.117188 Z M 680.910156 404.914062 C 680.910156 410.996094 675.984375 415.925781 669.902344 415.925781 L 645.75 415.925781 C 643.058594 476.1875 618.324219 532.457031 575.390625 575.390625 C 532.457031 618.320312 476.1875 643.058594 415.925781 645.75 L 415.925781 669.902344 C 415.925781 675.984375 410.996094 680.910156 404.914062 680.910156 C 398.835938 680.910156 393.902344 675.984375 393.902344 669.902344 L 393.902344 645.75 C 333.644531 643.058594 277.371094 618.320312 234.4375 575.390625 C 191.507812 532.457031 166.773438 476.1875 164.082031 415.925781 L 139.929688 415.925781 C 133.847656 415.925781 128.917969 410.996094 128.917969 404.914062 C 128.917969 398.835938 133.847656 393.902344 139.929688 393.902344 L 164.082031 393.902344 C 166.773438 333.640625 191.507812 277.371094 234.4375 234.4375 C 277.371094 191.507812 333.644531 166.773438 393.902344 164.082031 L 393.902344 139.929688 C 393.902344 133.847656 398.835938 128.917969 404.914062 128.917969 C 410.996094 128.917969 415.925781 133.847656 415.925781 139.929688 L 415.925781 164.082031 C 476.1875 166.773438 532.457031 191.507812 575.390625 234.4375 C 618.324219 277.371094 643.058594 333.640625 645.75 393.902344 L 669.902344 393.902344 C 675.984375 393.902344 680.910156 398.835938 680.910156 404.914062 Z M 425.707031 404.914062 C 425.707031 416.398438 416.398438 425.707031 404.914062 425.707031 C 393.433594 425.707031 384.125 416.398438 384.125 404.914062 C 384.125 393.433594 393.433594 384.125 404.914062 384.125 C 416.398438 384.125 425.707031 393.433594 425.707031 404.914062 " fill-opacity="1" fill-rule="nonzero"/></g></svg>