<svg xmlns="http://www.w3.org/2000/svg" xmlns:xlink="http://www.w3.org/1999/xlink" width="1080" zoomAndPan="magnify" viewBox="0 0 810 809.999993" height="1080" preserveAspectRatio="xMidYMid meet" version="1.0"><defs><clipPath id="f6b4a4bc4e"><path d="M 112.660156 112.660156 L 697.660156 112.660156 L 697.660156 697.660156 L 112.660156 697.660156 Z M 112.660156 112.660156 " clip-rule="nonzero"/></clipPath><clipPath id="acb8d55a61"><path d="M 619 229 L 697.660156 229 L 697.660156 659 L 619 659 Z M 619 229 " clip-rule="nonzero"/></clipPath></defs><g clip-path="url(#f6b4a4bc4e)"><path fill="#66c732" d="M 687.910156 678.160156 L 132.160156 678.160156 L 132.160156 122.410156 C 132.160156 121.769531 132.097656 121.132812 131.972656 120.507812 C 131.847656 119.878906 131.660156 119.269531 131.417969 118.679688 C 131.171875 118.085938 130.871094 117.523438 130.515625 116.992188 C 130.160156 116.460938 129.753906 115.96875 129.304688 115.515625 C 128.851562 115.0625 128.359375 114.65625 127.824219 114.300781 C 127.292969 113.945312 126.730469 113.644531 126.140625 113.402344 C 125.546875 113.15625 124.9375 112.972656 124.3125 112.847656 C 123.683594 112.722656 123.046875 112.660156 122.410156 112.660156 C 121.769531 112.660156 121.132812 112.722656 120.507812 112.847656 C 119.878906 112.972656 119.269531 113.15625 118.675781 113.402344 C 118.085938 113.644531 117.523438 113.945312 116.992188 114.300781 C 116.460938 114.65625 115.96875 115.0625 115.515625 115.515625 C 115.0625 115.96875 114.65625 116.460938 114.300781 116.992188 C 113.945312 117.523438 113.644531 118.085938 113.402344 118.679688 C 113.15625 119.269531 112.96875 119.878906 112.847656 120.507812 C 112.722656 121.132812 112.660156 121.769531 112.660156 122.410156 L 112.660156 687.910156 C 112.660156 688.550781 112.722656 689.183594 112.847656 689.8125 C 112.96875 690.4375 113.15625 691.046875 113.402344 691.640625 C 113.644531 692.230469 113.945312 692.792969 114.300781 693.324219 C 114.65625 693.859375 115.0625 694.351562 115.515625 694.804688 C 115.96875 695.253906 116.460938 695.660156 116.992188 696.015625 C 117.523438 696.371094 118.085938 696.671875 118.675781 696.917969 C 119.269531 697.160156 119.878906 697.347656 120.507812 697.472656 C 121.132812 697.597656 121.769531 697.660156 122.410156 697.660156 L 687.910156 697.660156 C 688.546875 697.660156 689.183594 697.597656 689.808594 697.472656 C 690.4375 697.347656 691.046875 697.160156 691.640625 696.917969 C 692.230469 696.671875 692.792969 696.371094 693.324219 696.015625 C 693.859375 695.660156 694.351562 695.253906 694.800781 694.804688 C 695.253906 694.351562 695.660156 693.859375 696.015625 693.324219 C 696.371094 692.792969 696.671875 692.230469 696.917969 691.640625 C 697.160156 691.046875 697.347656 690.4375 697.472656 689.8125 C 697.597656 689.183594 697.660156 688.550781 697.660156 687.910156 C 697.660156 687.269531 697.597656 686.632812 697.472656 686.007812 C 697.347656 685.378906 697.160156 684.769531 696.917969 684.175781 C 696.671875 683.585938 696.371094 683.023438 696.015625 682.492188 C 695.660156 681.960938 695.253906 681.46875 694.800781 681.015625 C 694.351562 680.5625 693.859375 680.15625 693.324219 679.800781 C 692.792969 679.445312 692.230469 679.144531 691.640625 678.902344 C 691.046875 678.65625 690.4375 678.472656 689.808594 678.347656 C 689.183594 678.222656 688.546875 678.160156 687.910156 678.160156 Z M 687.910156 678.160156 " fill-opacity="1" fill-rule="nonzero"/></g><path fill="#66c732" d="M 156.535156 512.410156 L 231.109375 512.410156 C 431.082031 512.410156 599.402344 373.324219 645.484375 186.296875 C 645.617188 185.777344 645.832031 185.292969 646.125 184.84375 C 646.417969 184.394531 646.777344 184.007812 647.199219 183.675781 C 647.621094 183.347656 648.082031 183.09375 648.589844 182.914062 C 649.09375 182.738281 649.617188 182.644531 650.152344 182.640625 L 675.597656 182.640625 C 676.089844 182.640625 676.566406 182.570312 677.035156 182.425781 C 677.503906 182.28125 677.9375 182.074219 678.34375 181.796875 C 678.75 181.523438 679.105469 181.195312 679.410156 180.8125 C 679.714844 180.433594 679.960938 180.015625 680.140625 179.558594 C 680.320312 179.105469 680.429688 178.632812 680.464844 178.144531 C 680.503906 177.65625 680.46875 177.175781 680.363281 176.699219 C 680.257812 176.21875 680.082031 175.769531 679.839844 175.34375 C 679.59375 174.917969 679.296875 174.539062 678.9375 174.207031 L 616.78125 115.816406 C 616.558594 115.605469 616.316406 115.417969 616.058594 115.253906 C 615.796875 115.085938 615.523438 114.949219 615.238281 114.835938 C 614.953125 114.722656 614.660156 114.636719 614.355469 114.578125 C 614.054688 114.519531 613.75 114.492188 613.441406 114.492188 C 613.136719 114.492188 612.832031 114.519531 612.527344 114.578125 C 612.226562 114.636719 611.933594 114.722656 611.648438 114.835938 C 611.359375 114.949219 611.089844 115.085938 610.828125 115.253906 C 610.570312 115.417969 610.328125 115.605469 610.101562 115.816406 L 547.945312 174.207031 C 547.589844 174.539062 547.289062 174.917969 547.046875 175.34375 C 546.804688 175.769531 546.628906 176.21875 546.523438 176.699219 C 546.414062 177.175781 546.378906 177.65625 546.417969 178.144531 C 546.457031 178.632812 546.566406 179.105469 546.746094 179.558594 C 546.925781 180.015625 547.167969 180.433594 547.476562 180.8125 C 547.78125 181.195312 548.136719 181.523438 548.542969 181.796875 C 548.945312 182.074219 549.382812 182.28125 549.851562 182.425781 C 550.320312 182.570312 550.796875 182.640625 551.285156 182.640625 L 572.128906 182.640625 C 572.507812 182.640625 572.886719 182.683594 573.257812 182.773438 C 573.628906 182.859375 573.984375 182.988281 574.324219 183.160156 C 574.667969 183.328125 574.984375 183.535156 575.277344 183.78125 C 575.570312 184.023438 575.832031 184.300781 576.0625 184.605469 C 576.292969 184.910156 576.484375 185.234375 576.636719 185.585938 C 576.792969 185.933594 576.902344 186.296875 576.972656 186.671875 C 577.042969 187.046875 577.070312 187.425781 577.050781 187.804688 C 577.035156 188.1875 576.972656 188.5625 576.867188 188.929688 C 531.675781 342.820312 398.832031 452.445312 231.109375 452.445312 L 156.535156 452.445312 C 156.214844 452.445312 155.894531 452.476562 155.582031 452.539062 C 155.269531 452.601562 154.964844 452.695312 154.667969 452.816406 C 154.371094 452.941406 154.089844 453.089844 153.824219 453.269531 C 153.558594 453.445312 153.3125 453.648438 153.085938 453.875 C 152.859375 454.101562 152.65625 454.347656 152.480469 454.613281 C 152.300781 454.878906 152.152344 455.160156 152.03125 455.457031 C 151.90625 455.75 151.816406 456.054688 151.753906 456.371094 C 151.691406 456.683594 151.660156 457 151.660156 457.320312 L 151.660156 507.535156 C 151.660156 507.855469 151.691406 508.171875 151.753906 508.484375 C 151.816406 508.800781 151.90625 509.105469 152.03125 509.398438 C 152.152344 509.695312 152.300781 509.976562 152.480469 510.242188 C 152.65625 510.507812 152.859375 510.753906 153.085938 510.980469 C 153.3125 511.207031 153.558594 511.410156 153.824219 511.585938 C 154.089844 511.765625 154.371094 511.914062 154.667969 512.039062 C 154.964844 512.160156 155.269531 512.253906 155.582031 512.316406 C 155.894531 512.378906 156.214844 512.410156 156.535156 512.410156 Z M 156.535156 512.410156 " fill-opacity="1" fill-rule="nonzero"/><path fill="#66c732" d="M 161.410156 539.625 L 219.910156 539.625 C 220.546875 539.625 221.183594 539.6875 221.8125 539.8125 C 222.4375 539.9375 223.046875 540.121094 223.640625 540.367188 C 224.230469 540.609375 224.792969 540.910156 225.324219 541.265625 C 225.859375 541.621094 226.351562 542.027344 226.800781 542.480469 C 227.253906 542.933594 227.660156 543.425781 228.015625 543.957031 C 228.371094 544.488281 228.671875 545.050781 228.917969 545.640625 C 229.160156 546.234375 229.347656 546.84375 229.472656 547.472656 C 229.597656 548.097656 229.660156 548.734375 229.660156 549.375 L 229.660156 648.910156 C 229.660156 649.550781 229.597656 650.183594 229.472656 650.8125 C 229.347656 651.4375 229.160156 652.046875 228.917969 652.640625 C 228.671875 653.230469 228.371094 653.792969 228.015625 654.324219 C 227.660156 654.859375 227.253906 655.351562 226.800781 655.804688 C 226.351562 656.253906 225.859375 656.660156 225.324219 657.015625 C 224.792969 657.371094 224.230469 657.671875 223.640625 657.917969 C 223.046875 658.160156 222.4375 658.347656 221.8125 658.472656 C 221.183594 658.597656 220.546875 658.660156 219.910156 658.660156 L 161.410156 658.660156 C 160.769531 658.660156 160.132812 658.597656 159.507812 658.472656 C 158.878906 658.347656 158.269531 658.160156 157.675781 657.917969 C 157.085938 657.671875 156.523438 657.371094 155.992188 657.015625 C 155.460938 656.660156 154.96875 656.253906 154.515625 655.804688 C 154.0625 655.351562 153.65625 654.859375 153.300781 654.324219 C 152.945312 653.792969 152.644531 653.230469 152.402344 652.640625 C 152.15625 652.046875 151.96875 651.4375 151.847656 650.8125 C 151.722656 650.183594 151.660156 649.550781 151.660156 648.910156 L 151.660156 549.375 C 151.660156 548.734375 151.722656 548.097656 151.847656 547.472656 C 151.96875 546.84375 152.15625 546.234375 152.402344 545.640625 C 152.644531 545.050781 152.945312 544.488281 153.300781 543.957031 C 153.65625 543.425781 154.0625 542.933594 154.515625 542.480469 C 154.96875 542.027344 155.460938 541.621094 155.992188 541.265625 C 156.523438 540.910156 157.085938 540.609375 157.675781 540.367188 C 158.269531 540.121094 158.878906 539.9375 159.507812 539.8125 C 160.132812 539.6875 160.769531 539.625 161.410156 539.625 Z M 161.410156 539.625 " fill-opacity="1" fill-rule="nonzero"/><path fill="#66c732" d="M 277.605469 538.199219 C 277 538.246094 276.402344 538.355469 275.816406 538.515625 C 275.230469 538.675781 274.664062 538.890625 274.121094 539.160156 C 273.574219 539.425781 273.058594 539.742188 272.570312 540.105469 C 272.082031 540.46875 271.636719 540.875 271.222656 541.324219 C 270.8125 541.769531 270.449219 542.253906 270.125 542.769531 C 269.804688 543.285156 269.535156 543.828125 269.316406 544.394531 C 269.097656 544.960938 268.933594 545.542969 268.820312 546.140625 C 268.710938 546.738281 268.65625 547.339844 268.660156 547.949219 L 268.660156 648.910156 C 268.660156 649.550781 268.722656 650.183594 268.847656 650.8125 C 268.96875 651.4375 269.15625 652.046875 269.402344 652.640625 C 269.644531 653.230469 269.945312 653.792969 270.300781 654.324219 C 270.65625 654.859375 271.0625 655.351562 271.515625 655.804688 C 271.96875 656.253906 272.460938 656.660156 272.992188 657.015625 C 273.523438 657.371094 274.085938 657.671875 274.675781 657.917969 C 275.269531 658.160156 275.878906 658.347656 276.507812 658.472656 C 277.132812 658.597656 277.769531 658.660156 278.410156 658.660156 L 336.910156 658.660156 C 337.546875 658.660156 338.183594 658.597656 338.808594 658.472656 C 339.4375 658.347656 340.046875 658.160156 340.640625 657.917969 C 341.230469 657.671875 341.792969 657.371094 342.324219 657.015625 C 342.859375 656.660156 343.351562 656.253906 343.800781 655.804688 C 344.253906 655.351562 344.660156 654.859375 345.015625 654.324219 C 345.371094 653.792969 345.671875 653.230469 345.917969 652.640625 C 346.160156 652.046875 346.347656 651.4375 346.472656 650.8125 C 346.597656 650.183594 346.660156 649.550781 346.660156 648.910156 L 346.660156 539.222656 C 346.65625 538.859375 346.632812 538.5 346.589844 538.136719 C 346.546875 537.777344 346.484375 537.421875 346.402344 537.070312 C 346.320312 536.71875 346.214844 536.371094 346.097656 536.027344 C 345.976562 535.6875 345.835938 535.351562 345.679688 535.027344 C 345.519531 534.699219 345.34375 534.382812 345.152344 534.078125 C 344.960938 533.769531 344.75 533.476562 344.523438 533.191406 C 344.300781 532.910156 344.058594 532.636719 343.804688 532.382812 C 343.546875 532.125 343.277344 531.882812 342.996094 531.65625 C 342.714844 531.429688 342.421875 531.21875 342.117188 531.023438 C 341.808594 530.828125 341.496094 530.648438 341.167969 530.492188 C 340.84375 530.332031 340.511719 530.1875 340.171875 530.066406 C 339.832031 529.941406 339.484375 529.839844 339.132812 529.753906 C 338.777344 529.671875 338.421875 529.605469 338.0625 529.558594 C 337.703125 529.515625 337.34375 529.488281 336.980469 529.484375 C 336.621094 529.476562 336.257812 529.492188 335.898438 529.527344 C 335.535156 529.5625 335.179688 529.617188 334.824219 529.691406 C 315.9375 533.78125 296.863281 536.613281 277.605469 538.199219 Z M 277.605469 538.199219 " fill-opacity="1" fill-rule="nonzero"/><path fill="#66c732" d="M 449.375 488.300781 C 430.917969 498.035156 411.851562 506.375 392.179688 513.324219 C 391.226562 513.65625 390.347656 514.128906 389.539062 514.738281 C 388.734375 515.34375 388.039062 516.0625 387.453125 516.886719 C 386.871094 517.710938 386.425781 518.601562 386.117188 519.566406 C 385.8125 520.527344 385.660156 521.515625 385.660156 522.523438 L 385.660156 648.910156 C 385.660156 649.550781 385.722656 650.183594 385.847656 650.8125 C 385.96875 651.4375 386.15625 652.046875 386.402344 652.640625 C 386.644531 653.230469 386.945312 653.792969 387.300781 654.324219 C 387.65625 654.859375 388.0625 655.351562 388.515625 655.804688 C 388.964844 656.253906 389.460938 656.660156 389.992188 657.015625 C 390.523438 657.371094 391.085938 657.671875 391.675781 657.917969 C 392.269531 658.160156 392.878906 658.347656 393.507812 658.472656 C 394.132812 658.597656 394.769531 658.660156 395.410156 658.660156 L 453.910156 658.660156 C 454.546875 658.660156 455.183594 658.597656 455.808594 658.472656 C 456.4375 658.347656 457.046875 658.160156 457.640625 657.917969 C 458.230469 657.671875 458.792969 657.371094 459.324219 657.015625 C 459.859375 656.660156 460.351562 656.253906 460.800781 655.804688 C 461.253906 655.351562 461.660156 654.859375 462.015625 654.324219 C 462.371094 653.792969 462.671875 653.230469 462.917969 652.640625 C 463.160156 652.046875 463.347656 651.4375 463.472656 650.8125 C 463.597656 650.183594 463.660156 649.550781 463.660156 648.910156 L 463.660156 496.929688 C 463.878906 489.824219 455.566406 484.816406 449.375 488.300781 Z M 449.375 488.300781 " fill-opacity="1" fill-rule="nonzero"/><path fill="#66c732" d="M 563.851562 402.292969 C 546.242188 420.710938 527.167969 437.460938 506.632812 452.542969 C 506.015625 452.996094 505.460938 453.515625 504.96875 454.097656 C 504.472656 454.679688 504.054688 455.3125 503.710938 455.996094 C 503.363281 456.675781 503.101562 457.390625 502.925781 458.132812 C 502.746094 458.875 502.660156 459.628906 502.660156 460.394531 L 502.660156 648.910156 C 502.660156 649.550781 502.722656 650.183594 502.847656 650.8125 C 502.96875 651.4375 503.15625 652.046875 503.402344 652.640625 C 503.644531 653.230469 503.945312 653.792969 504.300781 654.324219 C 504.65625 654.859375 505.0625 655.351562 505.515625 655.804688 C 505.964844 656.253906 506.460938 656.660156 506.992188 657.015625 C 507.523438 657.371094 508.085938 657.671875 508.675781 657.917969 C 509.269531 658.160156 509.878906 658.347656 510.507812 658.472656 C 511.132812 658.597656 511.769531 658.660156 512.410156 658.660156 L 570.910156 658.660156 C 571.546875 658.660156 572.183594 658.597656 572.808594 658.472656 C 573.4375 658.347656 574.046875 658.160156 574.640625 657.917969 C 575.230469 657.671875 575.792969 657.371094 576.324219 657.015625 C 576.859375 656.660156 577.351562 656.253906 577.800781 655.804688 C 578.253906 655.351562 578.660156 654.859375 579.015625 654.324219 C 579.371094 653.792969 579.671875 653.230469 579.917969 652.640625 C 580.160156 652.046875 580.347656 651.4375 580.472656 650.8125 C 580.597656 650.183594 580.660156 649.550781 580.660156 648.910156 L 580.660156 409.023438 C 580.949219 400.480469 569.542969 395.933594 563.851562 402.292969 Z M 563.851562 402.292969 " fill-opacity="1" fill-rule="nonzero"/><g clip-path="url(#acb8d55a61)"><path fill="#66c732" d="M 687.910156 229.660156 L 676.941406 229.660156 C 675.90625 229.660156 674.898438 229.820312 673.917969 230.140625 C 672.933594 230.460938 672.027344 230.921875 671.191406 231.53125 C 670.355469 232.140625 669.636719 232.863281 669.03125 233.703125 C 668.429688 234.539062 667.96875 235.453125 667.652344 236.433594 C 656.464844 271.546875 640.992188 304.65625 621.230469 335.761719 C 620.214844 337.363281 619.707031 339.109375 619.707031 341.003906 L 619.707031 648.910156 C 619.707031 649.550781 619.769531 650.183594 619.894531 650.8125 C 620.019531 651.4375 620.203125 652.046875 620.449219 652.640625 C 620.695312 653.230469 620.996094 653.792969 621.351562 654.324219 C 621.707031 654.859375 622.109375 655.351562 622.5625 655.804688 C 623.015625 656.253906 623.507812 656.660156 624.039062 657.015625 C 624.574219 657.371094 625.132812 657.671875 625.726562 657.917969 C 626.316406 658.160156 626.925781 658.347656 627.554688 658.472656 C 628.183594 658.597656 628.816406 658.660156 629.457031 658.660156 L 687.957031 658.660156 C 688.597656 658.660156 689.230469 658.597656 689.859375 658.472656 C 690.488281 658.347656 691.097656 658.160156 691.6875 657.917969 C 692.28125 657.671875 692.839844 657.371094 693.375 657.015625 C 693.90625 656.660156 694.398438 656.253906 694.851562 655.804688 C 695.304688 655.351562 695.707031 654.859375 696.0625 654.324219 C 696.417969 653.792969 696.71875 653.230469 696.964844 652.640625 C 697.210938 652.046875 697.394531 651.4375 697.519531 650.8125 C 697.644531 650.183594 697.707031 649.550781 697.707031 648.910156 L 697.707031 239.410156 C 697.707031 238.765625 697.644531 238.128906 697.519531 237.5 C 697.394531 236.871094 697.207031 236.257812 696.960938 235.667969 C 696.714844 235.074219 696.410156 234.511719 696.054688 233.976562 C 695.695312 233.445312 695.289062 232.949219 694.835938 232.496094 C 694.378906 232.042969 693.882812 231.640625 693.347656 231.285156 C 692.8125 230.929688 692.25 230.628906 691.65625 230.386719 C 691.058594 230.144531 690.449219 229.960938 689.816406 229.839844 C 689.1875 229.714844 688.550781 229.65625 687.910156 229.660156 Z M 687.910156 229.660156 " fill-opacity="1" fill-rule="nonzero"/></g></svg>