<svg xmlns="http://www.w3.org/2000/svg" xmlns:xlink="http://www.w3.org/1999/xlink" width="1080" zoomAndPan="magnify" viewBox="0 0 810 809.999993" height="1080" preserveAspectRatio="xMidYMid meet" version="1.0"><defs><clipPath id="f8f0ebaebd"><path d="M 217 147.453125 L 550 147.453125 L 550 620 L 217 620 Z M 217 147.453125 " clip-rule="nonzero"/></clipPath><clipPath id="4dad887ca8"><path d="M 442 147.453125 L 550 147.453125 L 550 255 L 442 255 Z M 442 147.453125 " clip-rule="nonzero"/></clipPath><clipPath id="7c8ea20f1d"><path d="M 282 265 L 592.742188 265 L 592.742188 662.703125 L 282 662.703125 Z M 282 265 " clip-rule="nonzero"/></clipPath></defs><g clip-path="url(#f8f0ebaebd)"><path fill="#66c732" d="M 538.863281 619.765625 L 227.878906 619.765625 C 221.953125 619.765625 217.152344 614.960938 217.152344 609.03125 L 217.152344 158.1875 C 217.152344 152.261719 221.953125 147.453125 227.878906 147.453125 L 453.074219 147.453125 C 455.917969 147.453125 458.644531 148.585938 460.65625 150.597656 L 546.445312 236.472656 C 548.453125 238.488281 549.585938 241.214844 549.585938 244.0625 L 549.585938 609.03125 C 549.585938 614.960938 544.785156 619.765625 538.863281 619.765625 Z M 238.601562 598.296875 L 528.136719 598.296875 L 528.136719 248.511719 L 448.632812 168.921875 L 238.601562 168.921875 Z M 238.601562 598.296875 " fill-opacity="1" fill-rule="nonzero"/></g><g clip-path="url(#4dad887ca8)"><path fill="#66c732" d="M 538.863281 254.796875 L 453.074219 254.796875 C 447.148438 254.796875 442.347656 249.992188 442.347656 244.0625 L 442.347656 158.1875 C 442.347656 152.261719 447.148438 147.453125 453.074219 147.453125 C 458.996094 147.453125 463.796875 152.261719 463.796875 158.1875 L 463.796875 233.328125 L 538.863281 233.328125 C 544.785156 233.328125 549.585938 238.136719 549.585938 244.0625 C 549.585938 249.992188 544.785156 254.796875 538.863281 254.796875 Z M 538.863281 254.796875 " fill-opacity="1" fill-rule="nonzero"/></g><g clip-path="url(#7c8ea20f1d)"><path fill="#66c732" d="M 581.757812 662.703125 L 293.289062 662.703125 C 287.367188 662.703125 282.566406 657.898438 282.566406 651.96875 L 282.566406 609.03125 C 282.566406 603.105469 287.367188 598.296875 293.289062 598.296875 C 299.214844 598.296875 304.015625 603.105469 304.015625 609.03125 L 304.015625 641.234375 L 571.03125 641.234375 L 571.03125 287 L 538.863281 287 C 532.9375 287 528.136719 282.195312 528.136719 276.265625 C 528.136719 270.339844 532.9375 265.53125 538.863281 265.53125 L 581.757812 265.53125 C 587.679688 265.53125 592.480469 270.339844 592.480469 276.265625 L 592.480469 651.96875 C 592.480469 657.898438 587.679688 662.703125 581.757812 662.703125 Z M 581.757812 662.703125 " fill-opacity="1" fill-rule="nonzero"/></g><path fill="#66c732" d="M 313.667969 319.203125 L 270.773438 319.203125 C 264.847656 319.203125 260.046875 314.398438 260.046875 308.46875 C 260.046875 302.542969 264.847656 297.734375 270.773438 297.734375 L 302.941406 297.734375 L 302.941406 276.265625 L 270.773438 276.265625 C 264.847656 276.265625 260.046875 271.460938 260.046875 265.53125 L 260.046875 222.59375 C 260.046875 216.667969 264.847656 211.859375 270.773438 211.859375 L 313.667969 211.859375 C 319.589844 211.859375 324.390625 216.667969 324.390625 222.59375 C 324.390625 228.523438 319.589844 233.328125 313.667969 233.328125 L 281.496094 233.328125 L 281.496094 254.796875 L 313.667969 254.796875 C 319.589844 254.796875 324.390625 259.605469 324.390625 265.53125 L 324.390625 308.46875 C 324.390625 314.398438 319.589844 319.203125 313.667969 319.203125 Z M 313.667969 319.203125 " fill-opacity="1" fill-rule="nonzero"/><path fill="#66c732" d="M 292.21875 233.328125 C 286.296875 233.328125 281.496094 228.523438 281.496094 222.59375 L 281.496094 201.125 C 281.496094 195.199219 286.296875 190.390625 292.21875 190.390625 C 298.140625 190.390625 302.941406 195.199219 302.941406 201.125 L 302.941406 222.59375 C 302.941406 228.523438 298.140625 233.328125 292.21875 233.328125 Z M 292.21875 233.328125 " fill-opacity="1" fill-rule="nonzero"/><path fill="#66c732" d="M 292.21875 340.671875 C 286.296875 340.671875 281.496094 335.867188 281.496094 329.9375 L 281.496094 308.46875 C 281.496094 302.542969 286.296875 297.734375 292.21875 297.734375 C 298.140625 297.734375 302.941406 302.542969 302.941406 308.46875 L 302.941406 329.9375 C 302.941406 335.867188 298.140625 340.671875 292.21875 340.671875 Z M 292.21875 340.671875 " fill-opacity="1" fill-rule="nonzero"/><path fill="#66c732" d="M 345.835938 448.015625 L 270.773438 448.015625 C 264.847656 448.015625 260.046875 443.210938 260.046875 437.28125 L 260.046875 394.34375 C 260.046875 388.417969 264.847656 383.609375 270.773438 383.609375 L 345.835938 383.609375 C 351.757812 383.609375 356.558594 388.417969 356.558594 394.34375 L 356.558594 437.28125 C 356.558594 443.210938 351.757812 448.015625 345.835938 448.015625 Z M 281.496094 426.546875 L 335.113281 426.546875 L 335.113281 405.078125 L 281.496094 405.078125 Z M 281.496094 426.546875 " fill-opacity="1" fill-rule="nonzero"/><path fill="#66c732" d="M 495.96875 448.015625 L 345.835938 448.015625 C 339.914062 448.015625 335.113281 443.210938 335.113281 437.28125 L 335.113281 394.34375 C 335.113281 388.417969 339.914062 383.609375 345.835938 383.609375 L 495.96875 383.609375 C 501.890625 383.609375 506.691406 388.417969 506.691406 394.34375 L 506.691406 437.28125 C 506.691406 443.210938 501.890625 448.015625 495.96875 448.015625 Z M 356.558594 426.546875 L 485.242188 426.546875 L 485.242188 405.078125 L 356.558594 405.078125 Z M 356.558594 426.546875 " fill-opacity="1" fill-rule="nonzero"/><path fill="#66c732" d="M 345.835938 490.953125 L 270.773438 490.953125 C 264.847656 490.953125 260.046875 486.148438 260.046875 480.21875 L 260.046875 437.28125 C 260.046875 431.355469 264.847656 426.546875 270.773438 426.546875 L 345.835938 426.546875 C 351.757812 426.546875 356.558594 431.355469 356.558594 437.28125 L 356.558594 480.21875 C 356.558594 486.148438 351.757812 490.953125 345.835938 490.953125 Z M 281.496094 469.484375 L 335.113281 469.484375 L 335.113281 448.015625 L 281.496094 448.015625 Z M 281.496094 469.484375 " fill-opacity="1" fill-rule="nonzero"/><path fill="#66c732" d="M 495.96875 490.953125 L 345.835938 490.953125 C 339.914062 490.953125 335.113281 486.148438 335.113281 480.21875 L 335.113281 437.28125 C 335.113281 431.355469 339.914062 426.546875 345.835938 426.546875 L 495.96875 426.546875 C 501.890625 426.546875 506.691406 431.355469 506.691406 437.28125 L 506.691406 480.21875 C 506.691406 486.148438 501.890625 490.953125 495.96875 490.953125 Z M 356.558594 469.484375 L 485.242188 469.484375 L 485.242188 448.015625 L 356.558594 448.015625 Z M 356.558594 469.484375 " fill-opacity="1" fill-rule="nonzero"/><path fill="#66c732" d="M 345.835938 533.890625 L 270.773438 533.890625 C 264.847656 533.890625 260.046875 529.085938 260.046875 523.15625 L 260.046875 480.21875 C 260.046875 474.292969 264.847656 469.484375 270.773438 469.484375 L 345.835938 469.484375 C 351.757812 469.484375 356.558594 474.292969 356.558594 480.21875 L 356.558594 523.15625 C 356.558594 529.085938 351.757812 533.890625 345.835938 533.890625 Z M 281.496094 512.421875 L 335.113281 512.421875 L 335.113281 490.953125 L 281.496094 490.953125 Z M 281.496094 512.421875 " fill-opacity="1" fill-rule="nonzero"/><path fill="#66c732" d="M 495.96875 533.890625 L 345.835938 533.890625 C 339.914062 533.890625 335.113281 529.085938 335.113281 523.15625 L 335.113281 480.21875 C 335.113281 474.292969 339.914062 469.484375 345.835938 469.484375 L 495.96875 469.484375 C 501.890625 469.484375 506.691406 474.292969 506.691406 480.21875 L 506.691406 523.15625 C 506.691406 529.085938 501.890625 533.890625 495.96875 533.890625 Z M 356.558594 512.421875 L 485.242188 512.421875 L 485.242188 490.953125 L 356.558594 490.953125 Z M 356.558594 512.421875 " fill-opacity="1" fill-rule="nonzero"/><path fill="#66c732" d="M 345.835938 576.828125 L 270.773438 576.828125 C 264.847656 576.828125 260.046875 572.023438 260.046875 566.09375 L 260.046875 523.15625 C 260.046875 517.230469 264.847656 512.421875 270.773438 512.421875 L 345.835938 512.421875 C 351.757812 512.421875 356.558594 517.230469 356.558594 523.15625 L 356.558594 566.09375 C 356.558594 572.023438 351.757812 576.828125 345.835938 576.828125 Z M 281.496094 555.359375 L 335.113281 555.359375 L 335.113281 533.890625 L 281.496094 533.890625 Z M 281.496094 555.359375 " fill-opacity="1" fill-rule="nonzero"/><path fill="#66c732" d="M 495.96875 576.828125 L 345.835938 576.828125 C 339.914062 576.828125 335.113281 572.023438 335.113281 566.09375 L 335.113281 523.15625 C 335.113281 517.230469 339.914062 512.421875 345.835938 512.421875 L 495.96875 512.421875 C 501.890625 512.421875 506.691406 517.230469 506.691406 523.15625 L 506.691406 566.09375 C 506.691406 572.023438 501.890625 576.828125 495.96875 576.828125 Z M 356.558594 555.359375 L 485.242188 555.359375 L 485.242188 533.890625 L 356.558594 533.890625 Z M 356.558594 555.359375 " fill-opacity="1" fill-rule="nonzero"/><path fill="#66c732" d="M 388.730469 362.140625 L 378.007812 362.140625 C 372.085938 362.140625 367.285156 357.335938 367.285156 351.40625 C 367.285156 345.480469 372.085938 340.671875 378.007812 340.671875 L 388.730469 340.671875 C 394.652344 340.671875 399.453125 345.480469 399.453125 351.40625 C 399.453125 357.335938 394.652344 362.140625 388.730469 362.140625 Z M 388.730469 362.140625 " fill-opacity="1" fill-rule="nonzero"/><path fill="#66c732" d="M 485.242188 362.140625 L 420.902344 362.140625 C 414.980469 362.140625 410.179688 357.335938 410.179688 351.40625 C 410.179688 345.480469 414.980469 340.671875 420.902344 340.671875 L 485.242188 340.671875 C 491.167969 340.671875 495.96875 345.480469 495.96875 351.40625 C 495.96875 357.335938 491.167969 362.140625 485.242188 362.140625 Z M 485.242188 362.140625 " fill-opacity="1" fill-rule="nonzero"/><path fill="#66c732" d="M 388.730469 319.203125 L 378.007812 319.203125 C 372.085938 319.203125 367.285156 314.398438 367.285156 308.46875 C 367.285156 302.542969 372.085938 297.734375 378.007812 297.734375 L 388.730469 297.734375 C 394.652344 297.734375 399.453125 302.542969 399.453125 308.46875 C 399.453125 314.398438 394.652344 319.203125 388.730469 319.203125 Z M 388.730469 319.203125 " fill-opacity="1" fill-rule="nonzero"/><path fill="#66c732" d="M 485.242188 319.203125 L 420.902344 319.203125 C 414.980469 319.203125 410.179688 314.398438 410.179688 308.46875 C 410.179688 302.542969 414.980469 297.734375 420.902344 297.734375 L 485.242188 297.734375 C 491.167969 297.734375 495.96875 302.542969 495.96875 308.46875 C 495.96875 314.398438 491.167969 319.203125 485.242188 319.203125 Z M 485.242188 319.203125 " fill-opacity="1" fill-rule="nonzero"/></svg>