<svg xmlns="http://www.w3.org/2000/svg" xmlns:xlink="http://www.w3.org/1999/xlink" width="1080" zoomAndPan="magnify" viewBox="0 0 810 809.999993" height="1080" preserveAspectRatio="xMidYMid meet" version="1.0"><defs><clipPath id="d075678c59"><path d="M 163 162 L 647.691406 162 L 647.691406 648 L 163 648 Z M 163 162 " clip-rule="nonzero"/></clipPath></defs><g clip-path="url(#d075678c59)"><path fill="#66c732" d="M 637.617188 348.648438 C 637.691406 348.324219 637.738281 347.984375 637.765625 347.644531 L 647.289062 280.183594 C 647.398438 279.648438 647.46875 279.089844 647.46875 278.519531 C 647.46875 274.191406 643.953125 270.675781 639.621094 270.675781 L 577.832031 270.675781 C 577.820312 270.675781 577.804688 270.675781 577.792969 270.675781 C 577.78125 270.675781 577.769531 270.675781 577.757812 270.675781 L 516.039062 270.675781 C 516.015625 270.675781 515.992188 270.675781 515.96875 270.675781 C 515.945312 270.675781 515.917969 270.675781 515.894531 270.675781 L 454.25 270.675781 C 454.214844 270.675781 454.179688 270.675781 454.140625 270.675781 C 454.105469 270.675781 454.070312 270.675781 454.03125 270.675781 L 392.460938 270.675781 C 392.414062 270.675781 392.363281 270.660156 392.316406 270.660156 C 392.265625 270.660156 392.21875 270.675781 392.171875 270.675781 L 330.660156 270.675781 C 330.597656 270.675781 330.539062 270.660156 330.488281 270.660156 C 330.429688 270.660156 330.367188 270.675781 330.320312 270.675781 L 276.972656 270.675781 L 244.300781 184.707031 C 243.367188 182.21875 241.292969 180.496094 238.914062 179.867188 L 173.28125 163.089844 C 169.09375 162.023438 164.824219 164.558594 163.753906 168.753906 C 162.6875 172.953125 165.222656 177.222656 169.421875 178.277344 L 231.101562 194.042969 L 275.507812 310.855469 L 316.136719 417.757812 C 316.234375 418.097656 316.367188 418.425781 316.511719 418.753906 L 322.96875 435.734375 C 323.078125 436.085938 323.210938 436.425781 323.355469 436.765625 L 341.3125 484.007812 L 322.992188 501.546875 C 307.085938 516.765625 296.796875 531.296875 292.175781 543.667969 C 289.191406 551.660156 288.464844 558.988281 290.003906 565.316406 C 291.691406 572.316406 295.9375 577.882812 302.71875 581.621094 C 304.976562 582.855469 307.5 583.886719 310.3125 584.675781 C 304.429688 591.394531 300.851562 600.175781 300.851562 609.792969 C 300.851562 620.078125 304.9375 629.429688 311.585938 636.308594 L 312.035156 636.804688 C 318.953125 643.71875 328.5 647.988281 339.042969 647.988281 C 349.585938 647.988281 359.144531 643.707031 366.050781 636.804688 L 366.050781 636.769531 C 372.953125 629.855469 377.234375 620.308594 377.234375 609.792969 C 377.234375 601.085938 374.300781 593.058594 369.363281 586.628906 L 532.578125 586.628906 C 527.953125 592.949219 525.210938 600.722656 525.210938 609.140625 C 525.210938 619.425781 529.300781 628.777344 535.949219 635.652344 L 536.398438 636.148438 C 543.3125 643.0625 552.863281 647.332031 563.40625 647.332031 C 573.949219 647.332031 583.507812 643.050781 590.410156 636.148438 L 590.410156 636.113281 C 597.316406 629.199219 601.597656 619.65625 601.597656 609.140625 C 601.597656 600.734375 598.855469 592.949219 594.234375 586.628906 L 608.792969 586.628906 C 613.125 586.628906 616.640625 583.109375 616.640625 578.78125 C 616.640625 574.449219 613.125 570.933594 608.792969 570.933594 C 608.792969 570.933594 325.941406 570.933594 325.941406 570.933594 C 319.050781 570.933594 313.832031 569.855469 310.277344 567.890625 C 307.535156 566.375 305.847656 564.238281 305.21875 561.632812 C 304.429688 558.355469 304.964844 554.109375 306.832031 549.101562 C 310.652344 538.878906 319.65625 526.386719 333.851562 512.800781 L 353.941406 493.5625 L 392.570312 489.707031 C 392.921875 489.695312 393.273438 489.660156 393.625 489.597656 L 454.410156 483.535156 C 454.761719 483.523438 455.101562 483.484375 455.441406 483.4375 L 516.234375 477.371094 C 516.585938 477.359375 516.925781 477.324219 517.253906 477.277344 L 578.0625 471.210938 C 578.402344 471.199219 578.742188 471.164062 579.066406 471.113281 L 614.480469 467.585938 C 618.121094 467.367188 621.226562 464.601562 621.75 460.851562 L 627.925781 417.140625 C 627.996094 416.8125 628.046875 416.472656 628.070312 416.121094 Z M 354.984375 625.71875 C 350.921875 629.78125 345.277344 632.304688 339.066406 632.304688 C 332.855469 632.304688 327.226562 629.78125 323.148438 625.71875 L 322.785156 625.378906 C 318.925781 621.339844 316.5625 615.847656 316.5625 609.792969 C 316.5625 603.558594 319.074219 597.933594 323.148438 593.882812 C 327.214844 589.816406 332.855469 587.296875 339.066406 587.296875 C 345.277344 587.296875 350.910156 589.816406 354.984375 593.882812 L 355.347656 594.222656 C 359.207031 598.261719 361.574219 603.742188 361.574219 609.792969 C 361.574219 616.039062 359.050781 621.667969 354.984375 625.71875 Z M 579.324219 593.226562 L 579.6875 593.566406 C 583.542969 597.605469 585.910156 603.085938 585.910156 609.140625 C 585.910156 615.375 583.398438 621 579.324219 625.050781 C 575.257812 629.117188 569.617188 631.636719 563.40625 631.636719 C 557.195312 631.636719 551.5625 629.117188 547.488281 625.050781 L 547.125 624.710938 C 543.265625 620.675781 540.898438 615.179688 540.898438 609.128906 C 540.898438 602.894531 543.410156 597.265625 547.488281 593.214844 C 551.550781 589.152344 557.195312 586.628906 563.40625 586.628906 C 569.617188 586.640625 575.246094 589.164062 579.324219 593.226562 Z M 355.664062 477.710938 L 338.339844 432.132812 L 338.339844 423.363281 L 384.476562 423.363281 L 384.476562 474.835938 Z M 508.117188 339.164062 L 461.980469 339.164062 L 461.980469 286.34375 L 508.117188 286.34375 C 508.117188 296.738281 508.117188 316.421875 508.117188 339.164062 Z M 523.816406 286.355469 L 569.945312 286.355469 L 569.945312 339.175781 L 523.804688 339.175781 L 523.804688 286.355469 Z M 461.992188 354.859375 L 508.128906 354.859375 C 508.128906 372.398438 508.128906 390.832031 508.128906 407.679688 L 461.992188 407.679688 Z M 446.304688 407.667969 L 400.175781 407.667969 L 400.175781 354.847656 L 446.304688 354.847656 Z M 446.304688 339.164062 L 400.175781 339.164062 L 400.175781 286.34375 L 446.304688 286.34375 Z M 384.476562 339.164062 L 338.339844 339.164062 L 338.339844 286.34375 L 384.476562 286.34375 Z M 384.476562 354.859375 L 384.476562 407.679688 L 338.339844 407.679688 L 338.339844 354.859375 Z M 322.652344 390.847656 L 308.96875 354.847656 L 322.652344 354.847656 Z M 400.164062 423.351562 L 446.292969 423.351562 L 446.292969 468.664062 L 400.164062 473.261719 Z M 461.992188 423.351562 L 508.128906 423.351562 C 508.128906 440.367188 508.128906 454.496094 508.128906 462.492188 L 461.992188 467.097656 Z M 523.816406 423.351562 L 569.945312 423.351562 L 569.945312 456.328125 L 523.804688 460.9375 L 523.804688 423.351562 Z M 523.816406 407.667969 L 523.816406 354.847656 L 569.945312 354.847656 L 569.945312 407.667969 Z M 585.644531 354.859375 L 620.9375 354.859375 L 613.476562 407.679688 L 585.644531 407.679688 Z M 623.144531 339.164062 L 585.632812 339.164062 L 585.632812 286.34375 L 630.605469 286.34375 Z M 322.652344 286.355469 L 322.652344 339.175781 L 303.011719 339.175781 L 290.148438 305.363281 L 282.929688 286.367188 L 322.652344 286.367188 Z M 585.644531 454.765625 L 585.644531 423.351562 L 611.265625 423.351562 L 607.128906 452.617188 Z M 585.644531 454.765625 " fill-opacity="1" fill-rule="nonzero"/></g></svg>