<svg xmlns="http://www.w3.org/2000/svg" xmlns:xlink="http://www.w3.org/1999/xlink" width="1080" zoomAndPan="magnify" viewBox="0 0 810 809.999993" height="1080" preserveAspectRatio="xMidYMid meet" version="1.0"><defs><clipPath id="70140b9c7a"><path d="M 207.460938 178 L 602.710938 178 L 602.710938 631.691406 L 207.460938 631.691406 Z M 207.460938 178 " clip-rule="nonzero"/></clipPath></defs><g clip-path="url(#70140b9c7a)"><path fill="#66c732" d="M 566.125 178.289062 L 273.273438 178.289062 C 253.121094 178.289062 236.691406 194.699219 236.691406 214.828125 L 236.691406 244.113281 L 222.074219 244.113281 C 213.996094 244.113281 207.460938 250.640625 207.460938 258.710938 L 207.460938 280.652344 C 207.460938 288.722656 213.996094 295.25 222.074219 295.25 L 236.691406 295.25 L 236.691406 331.785156 L 222.074219 331.785156 C 213.996094 331.785156 207.460938 338.316406 207.460938 346.382812 L 207.460938 368.324219 C 207.460938 376.394531 213.996094 382.921875 222.074219 382.921875 L 236.691406 382.921875 L 236.691406 419.460938 L 222.074219 419.460938 C 213.996094 419.460938 207.460938 425.988281 207.460938 434.058594 L 207.460938 456 C 207.460938 464.066406 213.996094 470.597656 222.074219 470.597656 L 236.691406 470.597656 L 236.691406 507.132812 L 222.074219 507.132812 C 213.996094 507.132812 207.460938 513.664062 207.460938 521.730469 L 207.460938 543.671875 C 207.460938 551.742188 213.996094 558.269531 222.074219 558.269531 L 236.691406 558.269531 L 236.691406 594.808594 C 236.691406 615.027344 253.121094 631.347656 273.273438 631.347656 L 566.125 631.347656 C 586.371094 631.347656 602.710938 614.9375 602.710938 594.808594 L 602.710938 214.828125 C 602.710938 194.699219 586.371094 178.289062 566.125 178.289062 Z M 222.074219 258.710938 L 266.011719 258.710938 L 266.011719 280.652344 L 222.074219 280.652344 Z M 222.074219 346.476562 L 266.011719 346.476562 L 266.011719 368.414062 L 222.074219 368.414062 Z M 222.074219 434.238281 L 266.011719 434.238281 L 266.011719 456.179688 L 222.074219 456.179688 Z M 222.074219 521.914062 L 266.011719 521.914062 L 266.011719 543.855469 L 222.074219 543.855469 Z M 251.304688 595.082031 L 251.304688 558.542969 L 265.921875 558.542969 C 274 558.542969 280.539062 552.015625 280.539062 543.945312 L 280.539062 521.914062 C 280.539062 513.84375 274 507.316406 265.921875 507.316406 L 251.304688 507.316406 L 251.304688 470.777344 L 265.921875 470.777344 C 274 470.777344 280.539062 464.25 280.539062 456.179688 L 280.539062 434.238281 C 280.539062 426.171875 274 419.640625 265.921875 419.640625 L 251.304688 419.640625 L 251.304688 383.105469 L 265.921875 383.105469 C 274 383.105469 280.539062 376.574219 280.539062 368.507812 L 280.539062 346.566406 C 280.539062 338.496094 274 331.96875 265.921875 331.96875 L 251.304688 331.96875 L 251.304688 295.25 L 265.921875 295.25 C 274 295.25 280.539062 288.722656 280.539062 280.652344 L 280.539062 258.710938 C 280.539062 250.640625 274 244.113281 265.921875 244.113281 L 251.304688 244.113281 L 251.304688 214.828125 C 251.304688 202.679688 261.109375 192.886719 273.273438 192.886719 L 302.597656 192.886719 L 302.597656 616.929688 L 273.273438 616.929688 C 261.203125 617.019531 251.398438 607.136719 251.304688 595.082031 Z M 588.09375 595.082031 C 588.09375 607.230469 578.292969 617.019531 566.125 617.019531 L 317.210938 617.019531 L 317.210938 192.886719 L 566.125 192.886719 C 578.292969 192.886719 588.09375 202.679688 588.09375 214.828125 Z M 481.339844 397.882812 C 497.769531 380.019531 496.589844 352.277344 478.796875 335.867188 C 461.003906 319.457031 433.136719 320.636719 416.707031 338.40625 C 401.273438 355.179688 401.273438 381.019531 416.707031 397.792969 C 391.742188 410.121094 375.855469 435.507812 375.855469 463.34375 C 375.855469 475.492188 385.660156 485.285156 397.824219 485.285156 L 500.3125 485.285156 C 512.476562 485.285156 522.28125 475.492188 522.28125 463.34375 C 522.097656 435.597656 506.304688 410.210938 481.339844 397.882812 Z M 500.222656 470.777344 L 397.734375 470.777344 C 393.648438 470.777344 390.378906 467.511719 390.378906 463.433594 C 390.46875 437.230469 407.898438 414.292969 433.136719 407.128906 C 437.039062 406.042969 439.308594 401.960938 438.21875 398.15625 C 437.675781 396.25 436.402344 394.710938 434.769531 393.710938 C 420.609375 385.824219 415.523438 368.054688 423.421875 353.910156 C 431.320312 339.765625 449.113281 334.6875 463.273438 342.578125 C 477.4375 350.464844 482.519531 368.234375 474.621094 382.378906 C 471.988281 387.183594 467.996094 391.082031 463.273438 393.710938 C 459.734375 395.707031 458.464844 400.148438 460.460938 403.683594 C 461.367188 405.40625 463.003906 406.585938 464.910156 407.128906 C 490.144531 414.292969 507.574219 437.230469 507.664062 463.433594 C 507.574219 467.511719 504.304688 470.777344 500.222656 470.777344 Z M 500.222656 470.777344 " fill-opacity="1" fill-rule="nonzero"/></g></svg>